<svg width="36" height="36" viewBox="0 0 36 36" fill="none" xmlns="http://www.w3.org/2000/svg">
<path fill-rule="evenodd" clip-rule="evenodd" d="M24.7812 26.8C24.5288 25.1959 23.7737 23.6907 22.5945 22.5115C21.1224 21.0394 19.1112 20.2 17 20.2C14.8888 20.2 12.8776 21.0394 11.4055 22.5115C10.2263 23.6907 9.47124 25.1959 9.21884 26.8L24.7812 26.8ZM25.9197 26.8C25.6582 24.8561 24.7664 23.0385 23.364 21.636C21.6761 19.9482 19.3869 19 17 19C14.6131 19 12.3239 19.9482 10.636 21.636C9.23361 23.0385 8.34181 24.8561 8.08032 26.8C8.02711 27.1956 8 27.5964 8 28L26 28C26 27.5964 25.9729 27.1956 25.9197 26.8Z" fill="url(#paint0_linear_400_596)"/>
<path fill-rule="evenodd" clip-rule="evenodd" d="M17 16.875C18.864 16.875 20.375 15.364 20.375 13.5C20.375 11.636 18.864 10.125 17 10.125C15.136 10.125 13.625 11.636 13.625 13.5C13.625 15.364 15.136 16.875 17 16.875ZM17 18C19.4853 18 21.5 15.9853 21.5 13.5C21.5 11.0147 19.4853 9 17 9C14.5147 9 12.5 11.0147 12.5 13.5C12.5 15.9853 14.5147 18 17 18Z" fill="url(#paint1_linear_400_596)"/>
<path d="M26.2028 15V18M26.2028 21V18M26.2028 18H23M26.2028 18H29" stroke="url(#paint2_linear_400_596)" stroke-linecap="round"/>
<defs>
<linearGradient id="paint0_linear_400_596" x1="24.5114" y1="19.0951" x2="18.4611" y2="32.2878" gradientUnits="userSpaceOnUse">
<stop stop-color="#2FE9DE"/>
<stop offset="1" stop-color="#972FE9"/>
</linearGradient>
<linearGradient id="paint1_linear_400_596" x1="20.7557" y1="9.09507" x2="12.8017" y2="17.7669" gradientUnits="userSpaceOnUse">
<stop stop-color="#2FE9DE"/>
<stop offset="1" stop-color="#972FE9"/>
</linearGradient>
<linearGradient id="paint2_linear_400_596" x1="28.5038" y1="15.0634" x2="23.2011" y2="20.8446" gradientUnits="userSpaceOnUse">
<stop stop-color="#2FE9DE"/>
<stop offset="1" stop-color="#972FE9"/>
</linearGradient>
</defs>
</svg>
