<svg width="36" height="36" viewBox="0 0 36 36" fill="none" xmlns="http://www.w3.org/2000/svg">
<circle cx="13" cy="26" r="2" stroke="#17161B"/>
<circle cx="23" cy="26" r="2" stroke="#17161B"/>
<path fill-rule="evenodd" clip-rule="evenodd" d="M6 11C6 10.7239 6.22386 10.5 6.5 10.5H9.5C9.70303 10.5 9.8859 10.6228 9.96277 10.8107L11.2675 14H27.5C27.6884 14 27.8608 14.1059 27.946 14.274C28.0312 14.4421 28.0146 14.6437 27.9032 14.7957L22.4032 22.2957C22.309 22.4241 22.1593 22.5 22 22.5H14C13.797 22.5 13.6141 22.3772 13.5372 22.1893L9.16432 11.5H6.5C6.22386 11.5 6 11.2761 6 11ZM11.6766 15L14.3357 21.5H21.7466L26.5133 15H11.6766Z" fill="#17161B"/>
</svg>
