<svg width="36" height="36" viewBox="0 0 36 36" fill="none" xmlns="http://www.w3.org/2000/svg">
<path fill-rule="evenodd" clip-rule="evenodd" d="M17.1829 11.6302C15.7433 11.1556 14.1472 11 13.2 11C8.98903 11 6 13.5971 6 17C6 18.1615 6.65115 19.6382 7.83872 20.8839C7.84171 20.8871 7.84421 20.8906 7.84594 20.8939C7.8471 20.8961 7.84769 20.8979 7.84769 20.8979L8.25784 22.9486C8.41338 23.7263 9.26489 24.1384 9.97095 23.7853L12.7416 22.4L12.7469 22.3992C13.2916 22.3937 14.0992 22.3577 14.8933 22.2634C15.6633 22.172 16.5075 22.0171 17.0683 21.7367C17.3647 21.5885 17.4849 21.2281 17.3367 20.9317C17.1885 20.6353 16.8281 20.5151 16.5317 20.6633C16.1753 20.8415 15.518 20.9809 14.7518 21.0718C14.0097 21.1599 13.2464 21.1941 12.7348 21.1993C12.5527 21.2011 12.3717 21.2433 12.205 21.3267L9.43429 22.712L9.02437 20.6624C8.9778 20.4296 8.86356 20.2199 8.7073 20.0559C7.66419 18.9617 7.2 17.7667 7.2 17C7.2 14.4382 9.45807 12.2 13.2 12.2C14.0528 12.2 15.5167 12.3444 16.8071 12.7698C18.1482 13.2119 19.0414 13.8665 19.2117 14.7177C19.2766 15.0426 19.5927 15.2533 19.9177 15.1883C20.2426 15.1234 20.4533 14.8073 20.3883 14.4823C20.0786 12.9335 18.5718 12.0881 17.1829 11.6302Z" fill="#17161B" fill-opacity="0.698039"/>
<path fill-rule="evenodd" clip-rule="evenodd" d="M22.8 15.2C19.2926 15.2 17.4 17.2588 17.4 19.4C17.4 19.8308 17.6044 20.8374 18.4416 21.6699C19.2374 22.4613 20.7684 23.2552 23.7311 23.0186C24.0466 22.9934 24.382 23.0494 24.6893 23.203L26.7314 24.2241L26.9873 22.9447C27.0572 22.5952 27.2276 22.284 27.4584 22.0419C28.4293 21.0235 28.8 19.9693 28.8 19.4C28.8 18.3712 28.2468 17.3483 27.1712 16.5416C26.0952 15.7346 24.5537 15.2 22.8 15.2ZM16.2 19.4C16.2 16.4177 18.8236 14 22.8 14C26.7765 14 30 16.4177 30 19.4C30 20.3641 29.4423 21.6999 28.327 22.8699C28.2453 22.9557 28.1872 23.0639 28.164 23.1801L27.7538 25.2309C27.6762 25.6189 27.2512 25.8256 26.8974 25.6487L24.1527 24.2763C24.0529 24.2264 23.9378 24.2059 23.8266 24.2148C17.3789 24.7296 16.2 20.7876 16.2 19.4Z" fill="#17161B" fill-opacity="0.698039"/>
<path fill-rule="evenodd" clip-rule="evenodd" d="M20.1 18.2C20.1 18.0343 20.2343 17.9 20.4 17.9H25.2C25.3657 17.9 25.5 18.0343 25.5 18.2C25.5 18.3657 25.3657 18.5 25.2 18.5H20.4C20.2343 18.5 20.1 18.3657 20.1 18.2Z" fill="#17161B" fill-opacity="0.698039"/>
<path fill-rule="evenodd" clip-rule="evenodd" d="M20.7 20C20.7 19.8343 20.8343 19.7 21 19.7H25.8C25.9657 19.7 26.1 19.8343 26.1 20C26.1 20.1657 25.9657 20.3 25.8 20.3H21C20.8343 20.3 20.7 20.1657 20.7 20Z" fill="#17161B" fill-opacity="0.698039"/>
</svg>
