<svg width="24" height="24" viewBox="0 0 24 24" fill="none" xmlns="http://www.w3.org/2000/svg">
<mask id="path-1-inside-1_449_891" fill="white">
<path fill-rule="evenodd" clip-rule="evenodd" d="M18.4498 15.1469C18.6435 15.0977 18.8434 15.204 18.8963 15.3843L19.5796 17.7155C19.8227 18.5449 18.9169 19.2623 18.0757 18.9066L15.4859 17.8113C15.3031 17.734 15.2222 17.5334 15.3053 17.3633C15.3884 17.1932 15.604 17.118 15.7868 17.1953L18.3767 18.2906C18.6571 18.4092 18.959 18.17 18.878 17.8936L18.1946 15.5623C18.1418 15.3821 18.256 15.1961 18.4498 15.1469Z"/>
<path fill-rule="evenodd" clip-rule="evenodd" d="M12 17.5033C16.1599 17.5033 19.2727 14.9591 19.2727 12.09C19.2727 9.22092 16.1599 6.67667 12 6.67667C7.84012 6.67667 4.72727 9.22092 4.72727 12.09C4.72727 14.9591 7.84012 17.5033 12 17.5033ZM12 18.18C16.4183 18.18 20 15.4534 20 12.09C20 8.72658 16.4183 6 12 6C7.58172 6 4 8.72658 4 12.09C4 15.4534 7.58172 18.18 12 18.18Z"/>
</mask>
<path fill-rule="evenodd" clip-rule="evenodd" d="M18.4498 15.1469C18.6435 15.0977 18.8434 15.204 18.8963 15.3843L19.5796 17.7155C19.8227 18.5449 18.9169 19.2623 18.0757 18.9066L15.4859 17.8113C15.3031 17.734 15.2222 17.5334 15.3053 17.3633C15.3884 17.1932 15.604 17.118 15.7868 17.1953L18.3767 18.2906C18.6571 18.4092 18.959 18.17 18.878 17.8936L18.1946 15.5623C18.1418 15.3821 18.256 15.1961 18.4498 15.1469Z" fill="url(#paint0_linear_449_891)"/>
<path fill-rule="evenodd" clip-rule="evenodd" d="M12 17.5033C16.1599 17.5033 19.2727 14.9591 19.2727 12.09C19.2727 9.22092 16.1599 6.67667 12 6.67667C7.84012 6.67667 4.72727 9.22092 4.72727 12.09C4.72727 14.9591 7.84012 17.5033 12 17.5033ZM12 18.18C16.4183 18.18 20 15.4534 20 12.09C20 8.72658 16.4183 6 12 6C7.58172 6 4 8.72658 4 12.09C4 15.4534 7.58172 18.18 12 18.18Z" fill="url(#paint1_linear_449_891)"/>
<path d="M18.8963 15.3843L16.977 15.9469V15.9469L18.8963 15.3843ZM19.5796 17.7155L21.4989 17.1529L19.5796 17.7155ZM18.0757 18.9066L18.8548 17.0646L18.0757 18.9066ZM15.4859 17.8113L14.7069 19.6534L15.4859 17.8113ZM15.3053 17.3633L13.5083 16.4854L13.5083 16.4854L15.3053 17.3633ZM15.7868 17.1953L15.0078 19.0374L15.7868 17.1953ZM18.3767 18.2906L19.1557 16.4486L19.1557 16.4486L18.3767 18.2906ZM18.878 17.8936L20.7972 17.331L20.7972 17.331L18.878 17.8936ZM18.1946 15.5623L16.2754 16.1249L16.2754 16.1249L18.1946 15.5623ZM18.9417 17.0855C18.2015 17.2733 17.2576 16.9039 16.977 15.9469L20.8155 14.8217C20.4293 13.5042 19.0856 12.9222 17.9579 13.2083L18.9417 17.0855ZM16.977 15.9469L17.6604 18.2781L21.4989 17.1529L20.8155 14.8217L16.977 15.9469ZM17.6604 18.2781C17.521 17.8027 17.7484 17.381 17.9925 17.1876C18.2263 17.0025 18.5588 16.9394 18.8548 17.0646L17.2967 20.7487C18.4338 21.2295 19.6398 20.9856 20.476 20.3233C21.3226 19.6528 21.8813 18.4578 21.4989 17.1529L17.6604 18.2781ZM18.8548 17.0646L16.2649 15.9693L14.7069 19.6534L17.2967 20.7487L18.8548 17.0646ZM16.2649 15.9693C17.0484 16.3006 17.5649 17.2944 17.1023 18.2412L13.5083 16.4854C12.8796 17.7724 13.5577 19.1674 14.7069 19.6534L16.2649 15.9693ZM17.1023 18.2412C16.6834 19.0988 15.7267 19.3414 15.0078 19.0374L16.5659 15.3533C15.4813 14.8946 14.0935 15.2876 13.5083 16.4854L17.1023 18.2412ZM15.0078 19.0374L17.5976 20.1326L19.1557 16.4486L16.5659 15.3533L15.0078 19.0374ZM17.5976 20.1326C18.4543 20.4949 19.3692 20.3113 20.0046 19.8081C20.6504 19.2966 21.0987 18.3593 20.7972 17.331L16.9587 18.4561C16.7383 17.7043 17.0761 17.0248 17.5211 16.6724C17.9557 16.3282 18.5794 16.2048 19.1557 16.4486L17.5976 20.1326ZM20.1139 14.9998C20.4141 16.0239 19.7247 16.8868 18.9417 17.0855L17.9579 13.2083C16.7874 13.5054 15.8695 14.7403 16.2754 16.1249L20.1139 14.9998ZM12 19.5033C14.4785 19.5033 16.7341 18.7463 18.4127 17.4601C20.084 16.1795 21.2727 14.2847 21.2727 12.09H17.2727C17.2727 12.7644 16.905 13.5762 15.9799 14.285C15.0622 14.9882 13.6814 15.5033 12 15.5033V19.5033ZM21.2727 12.09C21.2727 9.89529 20.084 8.00044 18.4127 6.71987C16.7341 5.43367 14.4785 4.67667 12 4.67667V8.67667C13.6814 8.67667 15.0622 9.19179 15.9799 9.89499C16.905 10.6038 17.2727 11.4156 17.2727 12.09H21.2727ZM12 4.67667C9.52147 4.67667 7.26591 5.43367 5.58727 6.71987C3.91597 8.00044 2.72727 9.89529 2.72727 12.09H6.72727C6.72727 11.4156 7.095 10.6038 8.02009 9.89499C8.93784 9.19179 10.3186 8.67667 12 8.67667V4.67667ZM2.72727 12.09C2.72727 14.2847 3.91597 16.1795 5.58727 17.4601C7.26591 18.7463 9.52147 19.5033 12 19.5033V15.5033C10.3186 15.5033 8.93784 14.9882 8.02009 14.285C7.095 13.5762 6.72727 12.7644 6.72727 12.09H2.72727ZM12 20.18C14.6071 20.18 17.042 19.3779 18.8683 17.9876C20.6961 16.5962 22 14.5296 22 12.09H18C18 13.0138 17.513 13.9922 16.4454 14.8049C15.3763 15.6188 13.8112 16.18 12 16.18V20.18ZM22 12.09C22 9.6504 20.6961 7.58381 18.8683 6.19235C17.042 4.8021 14.6071 4 12 4V8C13.8112 8 15.3763 8.56119 16.4454 9.37508C17.513 10.1878 18 11.1662 18 12.09H22ZM12 4C9.39294 4 6.958 4.8021 5.13172 6.19235C3.30386 7.58381 2 9.6504 2 12.09H6C6 11.1662 6.487 10.1878 7.55457 9.37508C8.62373 8.56119 10.1888 8 12 8V4ZM2 12.09C2 14.5296 3.30386 16.5962 5.13172 17.9876C6.958 19.3779 9.39294 20.18 12 20.18V16.18C10.1888 16.18 8.62373 15.6188 7.55457 14.8049C6.487 13.9922 6 13.0138 6 12.09H2ZM20.7972 17.331L20.1139 14.9998L16.2754 16.1249L16.9587 18.4561L20.7972 17.331Z" fill="url(#paint2_linear_449_891)" mask="url(#path-1-inside-1_449_891)"/>
<defs>
<linearGradient id="paint0_linear_449_891" x1="18.6768" y1="6.13732" x2="7.62591" y2="20.9658" gradientUnits="userSpaceOnUse">
<stop stop-color="#2FE9DE"/>
<stop offset="1" stop-color="#972FE9"/>
</linearGradient>
<linearGradient id="paint1_linear_449_891" x1="18.6768" y1="6.13732" x2="7.62591" y2="20.9658" gradientUnits="userSpaceOnUse">
<stop stop-color="#2FE9DE"/>
<stop offset="1" stop-color="#972FE9"/>
</linearGradient>
<linearGradient id="paint2_linear_449_891" x1="18.6768" y1="6.13732" x2="7.62591" y2="20.9658" gradientUnits="userSpaceOnUse">
<stop stop-color="#2FE9DE"/>
<stop offset="1" stop-color="#972FE9"/>
</linearGradient>
</defs>
</svg>
