<svg width="24" height="24" viewBox="0 0 24 24" fill="none" xmlns="http://www.w3.org/2000/svg">
<path fill-rule="evenodd" clip-rule="evenodd" d="M12 8.36405C12.0591 8.36558 12.1196 8.35488 12.1775 8.33048C12.3205 8.27028 12.4124 8.14182 12.4306 8.00042C12.8703 7.13073 14.3168 5.57322 17.0184 5.86813C18.3871 6.01753 19.2283 6.74467 19.6936 7.62215C20.1692 8.51908 20.2471 9.56864 20.0605 10.3018C20.057 10.3156 20.0542 10.3297 20.0521 10.3438C19.9616 10.9662 19.5715 11.7055 18.9463 12.5226C18.3276 13.3312 17.5109 14.1753 16.6255 15.0044C15.7414 15.8323 14.7986 16.6363 13.9313 17.3667C13.796 17.4807 13.6623 17.5931 13.5308 17.7036C12.9624 18.1813 12.4357 18.6238 12 19.0103C11.5643 18.6238 11.0376 18.1813 10.4692 17.7036C10.3377 17.5931 10.204 17.4807 10.0686 17.3667C9.20136 16.6363 8.25858 15.8323 7.37448 15.0044C6.48912 14.1753 5.67241 13.3312 5.05373 12.5226C4.42855 11.7055 4.03838 10.9662 3.94788 10.3438C3.94582 10.3297 3.94303 10.3156 3.9395 10.3018C3.75292 9.56864 3.83084 8.51908 4.30642 7.62215C4.77169 6.74467 5.61293 6.01753 6.98159 5.86813C9.68322 5.57322 11.1297 7.13073 11.5694 8.00042C11.5876 8.14182 11.6795 8.27028 11.8225 8.33048C11.8804 8.35488 11.9409 8.36558 12 8.36405ZM12 19.9999C12.1164 20.0028 12.2336 19.9587 12.3195 19.8687C12.339 19.8482 12.356 19.8263 12.3705 19.8034C12.8265 19.3893 13.4151 18.8946 14.0768 18.3385C14.2091 18.2273 14.3443 18.1137 14.482 17.9978C15.3504 17.2663 16.3078 16.4502 17.2092 15.606C18.1094 14.763 18.9637 13.883 19.6225 13.022C20.2693 12.1767 20.7602 11.3084 20.8864 10.4827C21.1161 9.55562 21.0113 8.3083 20.4439 7.23817C19.8619 6.14059 18.7888 5.22513 17.1118 5.04208C14.4476 4.75125 12.7842 6.02526 12 7.10218C11.2158 6.02526 9.55242 4.75125 6.88817 5.04208C5.21123 5.22513 4.13809 6.14059 3.55612 7.23817C2.9887 8.30831 2.88385 9.55562 3.11356 10.4827C3.23981 11.3084 3.73073 12.1767 4.37747 13.022C5.03627 13.883 5.89056 14.763 6.79077 15.606C7.69223 16.4502 8.64958 17.2663 9.51803 17.9978C9.65568 18.1137 9.79089 18.2273 9.92317 18.3385C10.5849 18.8946 11.1735 19.3893 11.6295 19.8034C11.644 19.8263 11.661 19.8482 11.6805 19.8687C11.7664 19.9587 11.8836 20.0028 12 19.9999Z" fill="url(#paint0_linear_381_6)"/>
<defs>
<linearGradient id="paint0_linear_381_6" x1="19.5114" y1="5.15845" x2="6.67156" y2="21.9567" gradientUnits="userSpaceOnUse">
<stop stop-color="#2FE9DE"/>
<stop offset="1" stop-color="#972FE9"/>
</linearGradient>
</defs>
</svg>
