<svg width="24" height="25" viewBox="0 0 24 25" fill="none" xmlns="http://www.w3.org/2000/svg">
<path fill-rule="evenodd" clip-rule="evenodd" d="M16.7712 16.9106C18.1438 15.1794 19 13.3947 19 11.5C19 7.63401 15.866 4.5 12 4.5C8.13401 4.5 5 7.63401 5 11.5C5 13.3253 6.16018 15.337 7.86259 17.2402C9.30398 18.8515 11.02 20.2587 12.3804 21.2386C13.9708 19.8831 15.5465 18.4552 16.7712 16.9106ZM12.4381 22.5C16 19.5 20 15.9183 20 11.5C20 7.08172 16.4183 3.5 12 3.5C7.58172 3.5 4 7.08172 4 11.5C4 15.9183 9.5 20.5 12.4381 22.5Z" fill="url(#paint0_linear_782_1292)"/>
<path d="M15 10.3872C15 11.9818 13.6569 13.5 12 13.5C10.3431 13.5 9 11.9818 9 10.3872C9 8.79265 10.3431 7.5 12 7.5C13.6569 7.5 15 8.79265 15 10.3872Z" fill="url(#paint1_linear_782_1292)"/>
<defs>
<linearGradient id="paint0_linear_782_1292" x1="18.6768" y1="3.7007" x2="1.8836" y2="19.1185" gradientUnits="userSpaceOnUse">
<stop stop-color="#2FE9DE"/>
<stop offset="1" stop-color="#972FE9"/>
</linearGradient>
<linearGradient id="paint1_linear_782_1292" x1="18.6768" y1="3.7007" x2="1.8836" y2="19.1185" gradientUnits="userSpaceOnUse">
<stop stop-color="#2FE9DE"/>
<stop offset="1" stop-color="#972FE9"/>
</linearGradient>
</defs>
</svg>
