<svg width="33" height="26" viewBox="0 0 33 26" fill="none" xmlns="http://www.w3.org/2000/svg">
<path d="M24.2295 2.9043C24.2295 3.53906 24.0179 4.13314 23.5947 4.68652C23.1878 5.23991 22.667 5.77702 22.0322 6.29785C21.4137 6.81868 20.7383 7.32324 20.0059 7.81152C19.2734 8.2998 18.5898 8.79622 17.9551 9.30078C17.3366 9.80534 16.8158 10.318 16.3926 10.8389C15.9857 11.3597 15.7822 11.9131 15.7822 12.499C15.7822 12.9873 16.124 13.4593 16.8076 13.915C17.4912 14.3708 18.4759 14.8265 19.7617 15.2822C21.0475 15.738 22.6019 16.21 24.4248 16.6982C26.2477 17.1702 28.2985 17.6748 30.5771 18.2119C31.7165 18.5212 32.2861 19.099 32.2861 19.9453C32.2861 20.2708 32.2048 20.5882 32.042 20.8975C31.8955 21.2067 31.6921 21.4834 31.4316 21.7275C31.1712 21.9554 30.8701 22.1426 30.5283 22.2891C30.2028 22.4355 29.8691 22.5088 29.5273 22.5088C28.7135 22.5088 27.7858 22.3867 26.7441 22.1426C25.7188 21.8984 24.6527 21.5973 23.5459 21.2393C22.4391 20.8812 21.3324 20.4906 20.2256 20.0674C19.1188 19.6279 18.0771 19.2292 17.1006 18.8711C16.1403 18.513 15.2858 18.2119 14.5371 17.9678C13.8047 17.7236 13.2513 17.6016 12.877 17.6016C12.584 17.6016 12.2992 17.7399 12.0225 18.0166C11.762 18.277 11.5179 18.6432 11.29 19.1152C11.0785 19.5872 10.8994 20.1488 10.7529 20.7998C10.6064 21.4346 10.5007 22.1344 10.4355 22.8994C10.3542 23.762 10.0449 24.4049 9.50781 24.8281C8.98698 25.235 8.2627 25.4385 7.33496 25.4385C6.37467 25.4385 5.82129 24.9909 5.6748 24.0957C5.43066 22.7285 5.12956 21.3369 4.77148 19.9209C4.42969 18.5049 4.0472 17.0889 3.62402 15.6729C3.21712 14.2568 2.76953 12.8571 2.28125 11.4736C1.80924 10.0902 1.31283 8.76367 0.791992 7.49414C0.661784 7.21745 0.564128 6.96517 0.499023 6.7373C0.450195 6.49316 0.425781 6.24902 0.425781 6.00488C0.425781 5.79329 0.490885 5.59798 0.621094 5.41895C0.751302 5.22363 0.930339 5.05273 1.1582 4.90625C1.38607 4.75977 1.64648 4.64583 1.93945 4.56445C2.2487 4.48307 2.56608 4.44238 2.8916 4.44238C3.55892 4.44238 4.08789 4.58073 4.47852 4.85742C4.86914 5.13411 5.2679 5.54915 5.6748 6.10254C5.87012 6.36296 6.05729 6.71289 6.23633 7.15234C6.41536 7.57552 6.58626 8.03125 6.74902 8.51953C6.91178 9.00781 7.07454 9.50423 7.2373 10.0088C7.40007 10.4971 7.55469 10.9447 7.70117 11.3516C7.86393 11.7422 8.01855 12.0677 8.16504 12.3281C8.3278 12.5723 8.48242 12.6943 8.62891 12.6943C8.75911 12.6943 8.86491 12.6374 8.94629 12.5234C9.04395 12.4095 9.15788 12.2386 9.28809 12.0107C10.1344 10.2529 11.0622 8.64974 12.0713 7.20117C13.0804 5.73633 14.1139 4.49121 15.1719 3.46582C16.2298 2.42415 17.2878 1.61849 18.3457 1.04883C19.4199 0.479167 20.4453 0.194336 21.4219 0.194336C21.8125 0.194336 22.1787 0.267578 22.5205 0.414062C22.8623 0.544271 23.1553 0.731445 23.3994 0.975586C23.6598 1.21973 23.8633 1.5127 24.0098 1.85449C24.1562 2.18001 24.2295 2.52995 24.2295 2.9043Z" fill="white"/>
</svg>
