<svg width="36" height="36" viewBox="0 0 36 36" fill="none" xmlns="http://www.w3.org/2000/svg">
<path d="M8 12C8 9.79086 9.79086 8 12 8H24C26.2091 8 28 9.79086 28 12V24C28 26.2091 26.2091 28 24 28H12C9.79086 28 8 26.2091 8 24V12Z" fill="#17161B" fill-opacity="0.698039"/>
<path d="M21.0918 13.7617C21.0918 14.0156 21.0072 14.2533 20.8379 14.4746C20.6751 14.696 20.4668 14.9108 20.2129 15.1191C19.9655 15.3275 19.6953 15.5293 19.4023 15.7246C19.1094 15.9199 18.8359 16.1185 18.582 16.3203C18.3346 16.5221 18.1263 16.7272 17.957 16.9355C17.7943 17.1439 17.7129 17.3652 17.7129 17.5996C17.7129 17.7949 17.8496 17.9837 18.123 18.166C18.3965 18.3483 18.7904 18.5306 19.3047 18.7129C19.819 18.8952 20.4408 19.084 21.1699 19.2793C21.8991 19.4681 22.7194 19.6699 23.6309 19.8848C24.0866 20.0085 24.3145 20.2396 24.3145 20.5781C24.3145 20.7083 24.2819 20.8353 24.2168 20.959C24.1582 21.0827 24.0768 21.1934 23.9727 21.291C23.8685 21.3822 23.748 21.457 23.6113 21.5156C23.4811 21.5742 23.3477 21.6035 23.2109 21.6035C22.8854 21.6035 22.5143 21.5547 22.0977 21.457C21.6875 21.3594 21.2611 21.2389 20.8184 21.0957C20.3757 20.9525 19.9329 20.7962 19.4902 20.627C19.0475 20.4512 18.6309 20.2917 18.2402 20.1484C17.8561 20.0052 17.5143 19.8848 17.2148 19.7871C16.9219 19.6895 16.7005 19.6406 16.5508 19.6406C16.4336 19.6406 16.3197 19.696 16.209 19.8066C16.1048 19.9108 16.0072 20.0573 15.916 20.2461C15.8314 20.4349 15.7598 20.6595 15.7012 20.9199C15.6426 21.1738 15.6003 21.4538 15.5742 21.7598C15.5417 22.1048 15.418 22.362 15.2031 22.5312C14.9948 22.694 14.7051 22.7754 14.334 22.7754C13.9499 22.7754 13.7285 22.5964 13.6699 22.2383C13.5723 21.6914 13.4518 21.1348 13.3086 20.5684C13.1719 20.002 13.0189 19.4355 12.8496 18.8691C12.6868 18.3027 12.5078 17.7428 12.3125 17.1895C12.1237 16.6361 11.9251 16.1055 11.7168 15.5977C11.6647 15.487 11.6257 15.3861 11.5996 15.2949C11.5801 15.1973 11.5703 15.0996 11.5703 15.002C11.5703 14.9173 11.5964 14.8392 11.6484 14.7676C11.7005 14.6895 11.7721 14.6211 11.8633 14.5625C11.9544 14.5039 12.0586 14.4583 12.1758 14.4258C12.2995 14.3932 12.4264 14.377 12.5566 14.377C12.8236 14.377 13.0352 14.4323 13.1914 14.543C13.3477 14.6536 13.5072 14.8197 13.6699 15.041C13.748 15.1452 13.8229 15.2852 13.8945 15.4609C13.9661 15.6302 14.0345 15.8125 14.0996 16.0078C14.1647 16.2031 14.2298 16.4017 14.2949 16.6035C14.36 16.7988 14.4219 16.9779 14.4805 17.1406C14.5456 17.2969 14.6074 17.4271 14.666 17.5312C14.7311 17.6289 14.793 17.6777 14.8516 17.6777C14.9036 17.6777 14.946 17.6549 14.9785 17.6094C15.0176 17.5638 15.0632 17.4954 15.1152 17.4043C15.4538 16.7012 15.8249 16.0599 16.2285 15.4805C16.6322 14.8945 17.0456 14.3965 17.4688 13.9863C17.8919 13.5697 18.3151 13.2474 18.7383 13.0195C19.168 12.7917 19.5781 12.6777 19.9688 12.6777C20.125 12.6777 20.2715 12.707 20.4082 12.7656C20.5449 12.8177 20.6621 12.8926 20.7598 12.9902C20.8639 13.0879 20.9453 13.2051 21.0039 13.3418C21.0625 13.472 21.0918 13.612 21.0918 13.7617Z" fill="white"/>
</svg>
