<svg width="112" height="64" viewBox="0 0 112 64" fill="none" xmlns="http://www.w3.org/2000/svg">
<rect x="0.125" y="0.125" width="111.75" height="63.75" rx="4.25" fill="white"/>
<rect x="78.75" y="50.0625" width="28.6875" height="10.625" rx="5.3125" fill="white"/>
<path d="M71.8214 33.2653V25.6327C71.8214 21.4173 68.3676 18 64.1071 18H46.75C43.0221 18 40 20.9901 40 24.6786V34.2194C40 38.4348 43.4538 41.852 47.7143 41.852H60.7321M40 24.2015H71.3393M67.9643 35.1735V39.9439M67.9643 39.9439V44.7143M67.9643 39.9439H63.1429M67.9643 39.9439H72.7857" stroke="#17161B" stroke-width="1.82143" stroke-linecap="round" stroke-linejoin="round"/>
<path d="M29.7114 50.988V48.2H30.8286V55H29.7114V52.0566H26.7971V55H25.68V48.2H26.7971V50.988H29.7114ZM36.229 54.388C35.7368 54.8802 35.1312 55.1263 34.4124 55.1263C33.6935 55.1263 33.088 54.8802 32.5958 54.388C32.0971 53.8893 31.8478 53.2838 31.8478 52.5714C31.8478 51.859 32.0971 51.2535 32.5958 50.7549C33.088 50.2627 33.6935 50.0166 34.4124 50.0166C35.1312 50.0166 35.7368 50.2627 36.229 50.7549C36.7276 51.2535 36.977 51.859 36.977 52.5714C36.977 53.2838 36.7276 53.8893 36.229 54.388ZM32.897 52.5714C32.897 53.0118 33.0427 53.3777 33.3341 53.6691C33.6255 53.9606 33.985 54.1063 34.4124 54.1063C34.8398 54.1063 35.1992 53.9606 35.4907 53.6691C35.7821 53.3777 35.9278 53.0118 35.9278 52.5714C35.9278 52.131 35.7821 51.7651 35.4907 51.4737C35.1992 51.1823 34.8398 51.0366 34.4124 51.0366C33.985 51.0366 33.6255 51.1823 33.3341 51.4737C33.0427 51.7651 32.897 52.131 32.897 52.5714ZM41.2868 52.5034C41.766 52.7301 42.0056 53.1025 42.0056 53.6206C42.0056 54.035 41.8631 54.3686 41.5782 54.6211C41.2997 54.8737 40.9111 55 40.4125 55H37.9256V50.1429H40.2182C40.7104 50.1429 41.0957 50.2659 41.3742 50.512C41.6527 50.7581 41.7919 51.0819 41.7919 51.4834C41.7919 51.9432 41.6235 52.2832 41.2868 52.5034ZM40.1405 51.0366H38.9262V52.1149H40.1405C40.5679 52.1149 40.7816 51.9335 40.7816 51.5709C40.7816 51.2147 40.5679 51.0366 40.1405 51.0366ZM38.9262 54.0869H40.3153C40.7557 54.0869 40.9759 53.8958 40.9759 53.5137C40.9759 53.3453 40.9176 53.2158 40.801 53.1251C40.6845 53.028 40.5226 52.9794 40.3153 52.9794H38.9262V54.0869ZM46.9678 54.388C46.4756 54.8802 45.8701 55.1263 45.1512 55.1263C44.4324 55.1263 43.8268 54.8802 43.3347 54.388C42.836 53.8893 42.5867 53.2838 42.5867 52.5714C42.5867 51.859 42.836 51.2535 43.3347 50.7549C43.8268 50.2627 44.4324 50.0166 45.1512 50.0166C45.8701 50.0166 46.4756 50.2627 46.9678 50.7549C47.4665 51.2535 47.7158 51.859 47.7158 52.5714C47.7158 53.2838 47.4665 53.8893 46.9678 54.388ZM43.6358 52.5714C43.6358 53.0118 43.7815 53.3777 44.0729 53.6691C44.3644 53.9606 44.7238 54.1063 45.1512 54.1063C45.5787 54.1063 45.9381 53.9606 46.2295 53.6691C46.5209 53.3777 46.6667 53.0118 46.6667 52.5714C46.6667 52.131 46.5209 51.7651 46.2295 51.4737C45.9381 51.1823 45.5787 51.0366 45.1512 51.0366C44.7238 51.0366 44.3644 51.1823 44.0729 51.4737C43.7815 51.7651 43.6358 52.131 43.6358 52.5714ZM52.181 49.4629H49.461V48.5497H52.181V49.4629ZM49.6942 53.2223L52.181 50.1429H52.9873V55H51.9576V51.9109L49.4707 55H48.6645V50.1429H49.6942V53.2223ZM58.7121 52.5229L60.9269 55H59.6738L57.6823 52.756V55H56.6332V50.1429H57.6823V52.2897L59.5669 50.1429H60.8492L58.7121 52.5229ZM65.0906 50.8326V50.1429H66.1397V55H65.0906V54.3006C64.6955 54.851 64.1288 55.1263 63.3906 55.1263C62.7235 55.1263 62.1536 54.8802 61.6808 54.388C61.2081 53.8958 60.9717 53.2903 60.9717 52.5714C60.9717 51.8526 61.2081 51.247 61.6808 50.7549C62.1536 50.2627 62.7235 50.0166 63.3906 50.0166C64.1288 50.0166 64.6955 50.2886 65.0906 50.8326ZM62.458 53.6886C62.7494 53.98 63.1153 54.1257 63.5557 54.1257C63.9961 54.1257 64.362 53.98 64.6534 53.6886C64.9448 53.3907 65.0906 53.0183 65.0906 52.5714C65.0906 52.1246 64.9448 51.7554 64.6534 51.464C64.362 51.1661 63.9961 51.0171 63.5557 51.0171C63.1153 51.0171 62.7494 51.1661 62.458 51.464C62.1666 51.7554 62.0208 52.1246 62.0208 52.5714C62.0208 53.0118 62.1666 53.3842 62.458 53.6886ZM70.1117 50.0166C70.7723 50.0166 71.3422 50.2659 71.8214 50.7646C72.2942 51.2568 72.5306 51.859 72.5306 52.5714C72.5306 53.2903 72.2942 53.8958 71.8214 54.388C71.3487 54.8802 70.7787 55.1263 70.1117 55.1263C69.3799 55.1263 68.8132 54.8543 68.4117 54.3103V56.9429H67.3626V50.1429H68.4117V50.8423C68.8067 50.2918 69.3734 50.0166 70.1117 50.0166ZM68.8488 53.6886C69.1403 53.98 69.5062 54.1257 69.9466 54.1257C70.3869 54.1257 70.7528 53.98 71.0443 53.6886C71.3357 53.3907 71.4814 53.0183 71.4814 52.5714C71.4814 52.1246 71.3357 51.7554 71.0443 51.464C70.7528 51.1661 70.3869 51.0171 69.9466 51.0171C69.5062 51.0171 69.1403 51.1661 68.8488 51.464C68.5574 51.7554 68.4117 52.1246 68.4117 52.5714C68.4117 53.0118 68.5574 53.3842 68.8488 53.6886ZM72.7768 50.1429H77.0025V51.1531H75.4191V55H74.37V51.1531H72.7768V50.1429ZM81.6319 54.388C81.1397 54.8802 80.5341 55.1263 79.8153 55.1263C79.0964 55.1263 78.4909 54.8802 77.9987 54.388C77.5 53.8893 77.2507 53.2838 77.2507 52.5714C77.2507 51.859 77.5 51.2535 77.9987 50.7549C78.4909 50.2627 79.0964 50.0166 79.8153 50.0166C80.5341 50.0166 81.1397 50.2627 81.6319 50.7549C82.1305 51.2535 82.3799 51.859 82.3799 52.5714C82.3799 53.2838 82.1305 53.8893 81.6319 54.388ZM78.2999 52.5714C78.2999 53.0118 78.4456 53.3777 78.737 53.6691C79.0284 53.9606 79.3879 54.1063 79.8153 54.1063C80.2427 54.1063 80.6021 53.9606 80.8936 53.6691C81.185 53.3777 81.3307 53.0118 81.3307 52.5714C81.3307 52.131 81.185 51.7651 80.8936 51.4737C80.6021 51.1823 80.2427 51.0366 79.8153 51.0366C79.3879 51.0366 79.0284 51.1823 78.737 51.4737C78.4456 51.7651 78.2999 52.131 78.2999 52.5714ZM86.8451 49.4629H84.1251V48.5497H86.8451V49.4629ZM84.3582 53.2223L86.8451 50.1429H87.6514V55H86.6217V51.9109L84.1348 55H83.3285V50.1429H84.3582V53.2223Z" fill="#17161B"/>
</svg>
