<svg width="36" height="36" viewBox="0 0 36 36" fill="none" xmlns="http://www.w3.org/2000/svg">
<path fill-rule="evenodd" clip-rule="evenodd" d="M17.25 8.50295C17.3155 8.50535 17.3789 8.50916 17.44 8.51425C17.4932 8.51868 17.5451 8.51463 17.5944 8.50322C18.4637 8.53492 19.5844 8.80126 20.5779 9.51043C21.7692 10.3608 22.8292 11.8843 23.0197 14.5516C23.2204 17.3622 23.4589 19.0559 23.6777 20.0948C23.8968 21.1343 24.1022 21.5488 24.2546 21.7773C24.4141 22.0165 24.5927 22.3084 24.7364 22.6088C24.883 22.9154 24.9769 23.1981 24.9963 23.4254C25.0149 23.6432 24.9633 23.7491 24.8908 23.8149C24.7985 23.8986 24.5648 24.016 24.0184 24.016H20.6259C20.5857 24.0055 20.5435 24 20.5 24C20.4565 24 20.4143 24.0055 20.3741 24.016H13.5073C13.5028 24.0159 13.4984 24.0159 13.4939 24.016H10.4816C9.93518 24.016 9.70149 23.8986 9.60921 23.8149C9.53663 23.7491 9.48509 23.6432 9.50364 23.4254C9.52302 23.1981 9.61696 22.9154 9.76358 22.6088C9.90722 22.3084 10.0859 22.0165 10.2454 21.7773C10.3977 21.5488 10.6032 21.1343 10.8222 20.0948C11.0411 19.0559 11.2795 17.3622 11.4803 14.5516C11.6708 11.8843 12.7307 10.3608 13.9221 9.51043C14.9155 8.80126 16.0362 8.53492 16.9056 8.50322C16.9549 8.51463 17.0068 8.51868 17.0599 8.51425C17.1211 8.50916 17.1845 8.50535 17.25 8.50295ZM17.25 7.50245C18.3356 7.47032 19.8364 7.75244 21.1589 8.69652C22.6176 9.73779 23.8077 11.5476 24.0171 14.4804C24.2164 17.2698 24.4507 18.913 24.6563 19.8886C24.8617 20.8636 25.0323 21.1411 25.0867 21.2226C25.2605 21.4835 25.467 21.8186 25.6386 22.1774C25.8071 22.53 25.9585 22.9389 25.9927 23.3405C26.0278 23.7518 25.9412 24.2124 25.5624 24.5558C25.2032 24.8814 24.672 25.016 24.0184 25.016H20.9396C20.7979 25.6631 20.4161 26.3994 19.8957 27.0114C19.2203 27.8057 18.2182 28.5 17 28.5C15.8222 28.5 14.8614 27.9136 14.1879 27.1516C13.6327 26.5236 13.2484 25.751 13.0794 25.016H10.4816C9.82795 25.016 9.29677 24.8814 8.93759 24.5558C8.55872 24.2124 8.4722 23.7518 8.50726 23.3405C8.54148 22.9389 8.69282 22.53 8.8614 22.1774C9.03297 21.8186 9.23943 21.4835 9.41331 21.2226C9.46767 21.1411 9.63829 20.8636 9.84371 19.8886C10.0493 18.913 10.2836 17.2698 10.4828 14.4804C10.6923 11.5476 11.8824 9.73779 13.3411 8.69652C14.6636 7.75244 16.1643 7.47032 17.25 7.50245ZM14.1137 25.016C14.2657 25.5181 14.5462 26.0471 14.9371 26.4893C15.4719 27.0943 16.1778 27.5 17 27.5C17.8214 27.5 18.5693 27.0276 19.1339 26.3636C19.5187 25.9111 19.7765 25.419 19.9049 25.016H14.1137Z" fill="#17161B"/>
</svg>
