<svg width="36" height="36" viewBox="0 0 36 36" fill="none" xmlns="http://www.w3.org/2000/svg">
<path fill-rule="evenodd" clip-rule="evenodd" d="M25.7812 26.8C25.5288 25.1959 24.7737 23.6907 23.5945 22.5115C22.1224 21.0394 20.1112 20.2 18 20.2C15.8888 20.2 13.8776 21.0394 12.4055 22.5115C11.2263 23.6907 10.4712 25.1959 10.2188 26.8L25.7812 26.8ZM26.9197 26.8C26.6582 24.8561 25.7664 23.0385 24.364 21.636C22.6761 19.9482 20.3869 19 18 19C15.6131 19 13.3239 19.9482 11.636 21.636C10.2336 23.0385 9.34181 24.8561 9.08032 26.8C9.02711 27.1956 9 27.5964 9 28L27 28C27 27.5964 26.9729 27.1956 26.9197 26.8Z" fill="url(#paint0_linear_56_32)"/>
<path fill-rule="evenodd" clip-rule="evenodd" d="M18 16.875C19.864 16.875 21.375 15.364 21.375 13.5C21.375 11.636 19.864 10.125 18 10.125C16.136 10.125 14.625 11.636 14.625 13.5C14.625 15.364 16.136 16.875 18 16.875ZM18 18C20.4853 18 22.5 15.9853 22.5 13.5C22.5 11.0147 20.4853 9 18 9C15.5147 9 13.5 11.0147 13.5 13.5C13.5 15.9853 15.5147 18 18 18Z" fill="url(#paint1_linear_56_32)"/>
<defs>
<linearGradient id="paint0_linear_56_32" x1="25.5114" y1="19.0951" x2="19.4611" y2="32.2878" gradientUnits="userSpaceOnUse">
<stop stop-color="#2FE9DE"/>
<stop offset="1" stop-color="#972FE9"/>
</linearGradient>
<linearGradient id="paint1_linear_56_32" x1="21.7557" y1="9.09507" x2="13.8017" y2="17.7669" gradientUnits="userSpaceOnUse">
<stop stop-color="#2FE9DE"/>
<stop offset="1" stop-color="#972FE9"/>
</linearGradient>
</defs>
</svg>
