<svg width="36" height="36" viewBox="0 0 36 36" fill="none" xmlns="http://www.w3.org/2000/svg">
<path d="M9.24023 7.5H13.7598C14.3471 7.5 14.7568 7.50049 15.0752 7.52734C15.3875 7.5537 15.5669 7.60319 15.7021 7.6748C15.9676 7.81544 16.1846 8.03242 16.3252 8.29785C16.3968 8.4331 16.4463 8.61249 16.4727 8.9248C16.4995 9.24322 16.5 9.65291 16.5 10.2402V14.7598C16.5 15.3471 16.4995 15.7568 16.4727 16.0752C16.4463 16.3875 16.3968 16.5669 16.3252 16.7021C16.1846 16.9676 15.9676 17.1846 15.7021 17.3252C15.5669 17.3968 15.3875 17.4463 15.0752 17.4727C14.7568 17.4995 14.3471 17.5 13.7598 17.5H9.24023C8.65291 17.5 8.24322 17.4995 7.9248 17.4727C7.61249 17.4463 7.4331 17.3968 7.29785 17.3252C7.03242 17.1846 6.81544 16.9676 6.6748 16.7021C6.60319 16.5669 6.5537 16.3875 6.52734 16.0752C6.50049 15.7568 6.5 15.3471 6.5 14.7598V10.2402C6.5 9.65291 6.50049 9.24322 6.52734 8.9248C6.5537 8.61249 6.60319 8.4331 6.6748 8.29785C6.81544 8.03242 7.03242 7.81544 7.29785 7.6748C7.4331 7.60319 7.61249 7.5537 7.9248 7.52734C8.24322 7.50049 8.65291 7.5 9.24023 7.5Z" stroke="url(#paint0_linear_350_193)"/>
<path d="M9.2002 19.5H13.7998C14.3681 19.5 14.7648 19.5002 15.0732 19.5254C15.3753 19.5501 15.5491 19.5961 15.6807 19.6631C15.9629 19.8069 16.1931 20.0371 16.3369 20.3193C16.4039 20.4509 16.4499 20.6247 16.4746 20.9268C16.4998 21.2352 16.5 21.6319 16.5 22.2002V26.7998C16.5 27.3681 16.4998 27.7648 16.4746 28.0732C16.4499 28.3753 16.4039 28.5491 16.3369 28.6807C16.1931 28.9629 15.9629 29.1931 15.6807 29.3369C15.5491 29.4039 15.3753 29.4499 15.0732 29.4746C14.7648 29.4998 14.3681 29.5 13.7998 29.5H9.2002C8.63189 29.5 8.23518 29.4998 7.92676 29.4746C7.62471 29.4499 7.45091 29.4039 7.31934 29.3369C7.03709 29.1931 6.8069 28.9629 6.66309 28.6807C6.59613 28.5491 6.55009 28.3753 6.52539 28.0732C6.50019 27.7648 6.5 27.3681 6.5 26.7998V22.2002C6.5 21.6319 6.50019 21.2352 6.52539 20.9268C6.55009 20.6247 6.59613 20.4509 6.66309 20.3193C6.8069 20.0371 7.03709 19.8069 7.31934 19.6631C7.45091 19.5961 7.62471 19.5501 7.92676 19.5254C8.23518 19.5002 8.63189 19.5 9.2002 19.5Z" stroke="url(#paint1_linear_350_193)"/>
<path d="M22.2002 7.5H26.7998C27.3681 7.5 27.7648 7.50019 28.0732 7.52539C28.3753 7.55009 28.5491 7.59613 28.6807 7.66309C28.9629 7.8069 29.1931 8.03709 29.3369 8.31934C29.4039 8.45091 29.4499 8.62471 29.4746 8.92676C29.4998 9.23518 29.5 9.63189 29.5 10.2002V14.7998C29.5 15.3681 29.4998 15.7648 29.4746 16.0732C29.4499 16.3753 29.4039 16.5491 29.3369 16.6807C29.1931 16.9629 28.9629 17.1931 28.6807 17.3369C28.5491 17.4039 28.3753 17.4499 28.0732 17.4746C27.7648 17.4998 27.3681 17.5 26.7998 17.5H22.2002C21.6319 17.5 21.2352 17.4998 20.9268 17.4746C20.6247 17.4499 20.4509 17.4039 20.3193 17.3369C20.0371 17.1931 19.8069 16.9629 19.6631 16.6807C19.5961 16.5491 19.5501 16.3753 19.5254 16.0732C19.5002 15.7648 19.5 15.3681 19.5 14.7998V10.2002C19.5 9.63189 19.5002 9.23518 19.5254 8.92676C19.5501 8.62471 19.5961 8.45091 19.6631 8.31934C19.8069 8.03709 20.0371 7.8069 20.3193 7.66309C20.4509 7.59613 20.6247 7.55009 20.9268 7.52539C21.2352 7.50019 21.6319 7.5 22.2002 7.5Z" stroke="url(#paint2_linear_350_193)"/>
<rect x="20" y="20" width="4" height="4" rx="1" fill="url(#paint3_linear_350_193)"/>
<mask id="path-5-inside-1_350_193" fill="white">
<rect x="24" y="24" width="2" height="2" rx="0.5"/>
</mask>
<rect x="24" y="24" width="2" height="2" rx="0.5" stroke="url(#paint4_linear_350_193)" stroke-width="2" mask="url(#path-5-inside-1_350_193)"/>
<rect x="26" y="26" width="4" height="4" rx="1" fill="url(#paint5_linear_350_193)"/>
<rect x="20" y="26" width="4" height="4" rx="1" fill="url(#paint6_linear_350_193)"/>
<rect x="26" y="20" width="4" height="4" rx="1" fill="url(#paint7_linear_350_193)"/>
<defs>
<linearGradient id="paint0_linear_350_193" x1="16.0903" y1="7.1162" x2="6.36871" y2="17.7151" gradientUnits="userSpaceOnUse">
<stop stop-color="#2FE9DE"/>
<stop offset="1" stop-color="#972FE9"/>
</linearGradient>
<linearGradient id="paint1_linear_350_193" x1="16.0903" y1="19.1162" x2="6.36871" y2="29.7151" gradientUnits="userSpaceOnUse">
<stop stop-color="#2FE9DE"/>
<stop offset="1" stop-color="#972FE9"/>
</linearGradient>
<linearGradient id="paint2_linear_350_193" x1="29.0903" y1="7.1162" x2="19.3687" y2="17.7151" gradientUnits="userSpaceOnUse">
<stop stop-color="#2FE9DE"/>
<stop offset="1" stop-color="#972FE9"/>
</linearGradient>
<linearGradient id="paint3_linear_350_193" x1="23.6692" y1="20.0423" x2="20.1341" y2="23.8964" gradientUnits="userSpaceOnUse">
<stop stop-color="#2FE9DE"/>
<stop offset="1" stop-color="#972FE9"/>
</linearGradient>
<linearGradient id="paint4_linear_350_193" x1="25.8346" y1="24.0211" x2="24.067" y2="25.9482" gradientUnits="userSpaceOnUse">
<stop stop-color="#2FE9DE"/>
<stop offset="1" stop-color="#972FE9"/>
</linearGradient>
<linearGradient id="paint5_linear_350_193" x1="29.6692" y1="26.0423" x2="26.1341" y2="29.8964" gradientUnits="userSpaceOnUse">
<stop stop-color="#2FE9DE"/>
<stop offset="1" stop-color="#972FE9"/>
</linearGradient>
<linearGradient id="paint6_linear_350_193" x1="23.6692" y1="26.0423" x2="20.1341" y2="29.8964" gradientUnits="userSpaceOnUse">
<stop stop-color="#2FE9DE"/>
<stop offset="1" stop-color="#972FE9"/>
</linearGradient>
<linearGradient id="paint7_linear_350_193" x1="29.6692" y1="20.0423" x2="26.1341" y2="23.8964" gradientUnits="userSpaceOnUse">
<stop stop-color="#2FE9DE"/>
<stop offset="1" stop-color="#972FE9"/>
</linearGradient>
</defs>
</svg>
