<svg width="112" height="64" viewBox="0 0 112 64" fill="none" xmlns="http://www.w3.org/2000/svg">
<rect width="111.75" height="63.75" transform="translate(0.125 0.125)" fill="url(#paint0_linear_110_238)"/>
<rect x="78.75" y="50.0625" width="28.6875" height="10.625" rx="5.3125" fill="white"/>
<path fill-rule="evenodd" clip-rule="evenodd" d="M85.123 51.125H85.1222C84.026 51.1237 82.9557 51.558 82.1724 52.3131C80.924 53.5116 80.5315 55.4089 81.1923 57.0024C81.6047 57.9971 82.4016 58.8203 83.3966 59.2617C84.4536 59.7305 85.6804 59.7467 86.7494 59.3039C87.7562 58.8868 88.5726 58.0865 89.0105 57.1C89.3555 56.3229 89.4576 55.4484 89.3082 54.6137L88.3928 55.2879C88.3928 55.7758 88.3113 56.2521 88.1116 56.7011C87.7745 57.4592 87.1473 58.075 86.3734 58.396C85.5508 58.7373 84.6096 58.7249 83.7957 58.3633C83.03 58.0233 82.4186 57.3917 82.1006 56.6258C81.7597 55.805 81.7717 54.8615 82.1328 54.0494C82.4697 53.2919 83.0966 52.6764 83.8707 52.3553C84.8843 51.9347 86.0586 52.0551 86.9658 52.6772L87.7927 52.068C87.045 51.4629 86.0898 51.1238 85.123 51.125ZM88.4875 52.777C88.6895 53.0381 88.8606 53.3217 88.9971 53.6222L85.1231 56.4765L83.504 55.4621V54.2417L85.1231 55.2561L88.4875 52.777Z" fill="url(#paint1_linear_110_238)"/>
<path d="M91.0325 52.175H93.2255C93.7865 52.175 94.254 52.362 94.628 52.736C95.0077 53.11 95.1975 53.5747 95.1975 54.13C95.1975 54.6797 95.0077 55.1443 94.628 55.524C94.254 55.898 93.7865 56.085 93.2255 56.085H92.01V58.125H91.0325V52.175ZM92.01 55.167H93.2255C93.5145 55.167 93.7525 55.0707 93.9395 54.878C94.1265 54.6797 94.22 54.4303 94.22 54.13C94.22 53.8297 94.1265 53.5832 93.9395 53.3905C93.7525 53.1922 93.5145 53.093 93.2255 53.093H92.01V55.167ZM99.0538 54.4785V53.875H99.9718V58.125H99.0538V57.513C98.7082 57.9947 98.2123 58.2355 97.5663 58.2355C96.9827 58.2355 96.484 58.0202 96.0703 57.5895C95.6567 57.1588 95.4498 56.629 95.4498 56C95.4498 55.371 95.6567 54.8412 96.0703 54.4105C96.484 53.9798 96.9827 53.7645 97.5663 53.7645C98.2123 53.7645 98.7082 54.0025 99.0538 54.4785ZM96.7503 56.9775C97.0053 57.2325 97.3255 57.36 97.7108 57.36C98.0962 57.36 98.4163 57.2325 98.6713 56.9775C98.9263 56.7168 99.0538 56.391 99.0538 56C99.0538 55.609 98.9263 55.286 98.6713 55.031C98.4163 54.7703 98.0962 54.64 97.7108 54.64C97.3255 54.64 97.0053 54.7703 96.7503 55.031C96.4953 55.286 96.3678 55.609 96.3678 56C96.3678 56.3853 96.4953 56.7112 96.7503 56.9775ZM102.818 56.9605L103.906 53.875H104.884L103.252 58.261C102.844 59.3603 102.153 59.8817 101.178 59.825V58.9665C101.461 58.9835 101.691 58.924 101.866 58.788C102.042 58.652 102.189 58.4338 102.308 58.1335L102.351 58.0485L100.549 53.875H101.552L102.818 56.9605Z" fill="#17161B"/>
<path d="M91.0325 52.175H93.2255C93.7865 52.175 94.254 52.362 94.628 52.736C95.0077 53.11 95.1975 53.5747 95.1975 54.13C95.1975 54.6797 95.0077 55.1443 94.628 55.524C94.254 55.898 93.7865 56.085 93.2255 56.085H92.01V58.125H91.0325V52.175ZM92.01 55.167H93.2255C93.5145 55.167 93.7525 55.0707 93.9395 54.878C94.1265 54.6797 94.22 54.4303 94.22 54.13C94.22 53.8297 94.1265 53.5832 93.9395 53.3905C93.7525 53.1922 93.5145 53.093 93.2255 53.093H92.01V55.167ZM99.0538 54.4785V53.875H99.9718V58.125H99.0538V57.513C98.7082 57.9947 98.2123 58.2355 97.5663 58.2355C96.9827 58.2355 96.484 58.0202 96.0703 57.5895C95.6567 57.1588 95.4498 56.629 95.4498 56C95.4498 55.371 95.6567 54.8412 96.0703 54.4105C96.484 53.9798 96.9827 53.7645 97.5663 53.7645C98.2123 53.7645 98.7082 54.0025 99.0538 54.4785ZM96.7503 56.9775C97.0053 57.2325 97.3255 57.36 97.7108 57.36C98.0962 57.36 98.4163 57.2325 98.6713 56.9775C98.9263 56.7168 99.0538 56.391 99.0538 56C99.0538 55.609 98.9263 55.286 98.6713 55.031C98.4163 54.7703 98.0962 54.64 97.7108 54.64C97.3255 54.64 97.0053 54.7703 96.7503 55.031C96.4953 55.286 96.3678 55.609 96.3678 56C96.3678 56.3853 96.4953 56.7112 96.7503 56.9775ZM102.818 56.9605L103.906 53.875H104.884L103.252 58.261C102.844 59.3603 102.153 59.8817 101.178 59.825V58.9665C101.461 58.9835 101.691 58.924 101.866 58.788C102.042 58.652 102.189 58.4338 102.308 58.1335L102.351 58.0485L100.549 53.875H101.552L102.818 56.9605Z" fill="url(#paint2_linear_110_238)"/>
<path d="M32.609 7.30932L33.9421 6.34254H29.5219V12.0742H33.9421V11.1074H30.7848V9.65723H33.451V8.69045H30.7848V7.30932H32.609ZM27.1012 7.30932L28.4343 6.34254H23.3826V12.0742H26.0137C27.4871 12.0742 28.3291 11.4182 28.3291 10.2787C28.3291 9.17384 27.5573 8.58686 26.154 8.58686H24.6105V7.30932H27.1012V7.30932ZM25.9786 9.51912C26.7855 9.51912 27.1363 9.79535 27.1363 10.3133C27.1363 10.8312 26.7504 11.1074 25.9786 11.1074H24.6455V9.51912H25.9786ZM37.4854 6.34254H35.0998V12.0742H36.3627V10.4514H37.5204C39.064 10.4514 40.0112 9.65723 40.0112 8.37969C40.0112 7.10216 39.0289 6.34254 37.4854 6.34254V6.34254ZM37.4854 9.48459H36.3627V7.2748H37.4854C38.2922 7.2748 38.7483 7.6546 38.7483 8.37969C38.7132 9.10478 38.2922 9.48459 37.4854 9.48459ZM21.2426 10.8312C20.8918 11.0038 20.541 11.1074 20.1551 11.1074C19.0325 11.1074 18.1905 10.3133 18.1905 9.20837C18.1905 8.10347 18.9974 7.30932 20.1551 7.30932C20.5761 7.30932 20.962 7.44744 21.3128 7.6546L22.2249 6.99857L22.1547 6.92951C21.6285 6.48065 20.9269 6.23895 20.12 6.23895C19.243 6.23895 18.4712 6.51518 17.8748 7.06763C17.3135 7.62008 16.9627 8.37969 16.9978 9.17384C16.9978 9.96799 17.3135 10.7276 17.8748 11.3146C18.4712 11.867 19.2781 12.1778 20.0849 12.1433C20.9971 12.1433 21.7689 11.8325 22.3302 11.2801L21.5233 10.6931L21.2426 10.8312ZM59.0955 8.69045H56.3943V6.34254H55.1313V12.0742H56.3943V9.72629H59.0955V12.0742H60.3585V6.34254H59.0955V8.69045ZM50.5707 6.34254L48.0449 12.0742H49.3078L49.799 10.9348H52.4652L52.9563 12.0742H54.2894L51.8337 6.34254H50.5707V6.34254ZM50.2199 9.96799L51.2022 7.6546L52.1143 9.96799H50.2199ZM64.9191 9.10478L67.1994 6.34254H65.761L63.8666 8.79403H63.165V6.34254H61.9021V12.0742H63.165V9.76082H63.9719L65.9014 12.0742H67.5151L64.9191 9.10478ZM45.4138 8.58686H43.8702V7.30932H47.1678V6.34254H42.6073V12.0742H45.2384C46.7118 12.0742 47.5537 11.4182 47.5537 10.2787C47.5888 9.17384 46.817 8.58686 45.4138 8.58686V8.58686ZM45.2033 11.1419H43.8702V9.55365H45.2033C46.0102 9.55365 46.361 9.82987 46.361 10.3478C46.3961 10.8657 45.9751 11.1419 45.2033 11.1419V11.1419Z" fill="white"/>
<path fill-rule="evenodd" clip-rule="evenodd" d="M9.16384 4.375H9.16292C7.92719 4.3735 6.72059 4.86211 5.83762 5.71166C4.43022 7.06001 3.98778 9.19459 4.73268 10.9873C5.19764 12.1064 6.09597 13.0325 7.21766 13.5291C8.40924 14.0565 9.79214 14.0748 10.9972 13.5766C12.1323 13.1074 13.0526 12.2069 13.5462 11.0972C13.9352 10.2229 14.0502 9.239 13.8818 8.29987L12.8499 9.05845C12.8499 9.60736 12.7581 10.1432 12.533 10.6484C12.1529 11.5013 11.4459 12.194 10.5735 12.5552C9.64608 12.9391 8.58509 12.9252 7.66749 12.5184C6.80441 12.1358 6.1151 11.4252 5.75661 10.5637C5.37237 9.64018 5.3859 8.57869 5.79298 7.66511C6.17278 6.81281 6.87946 6.12042 7.75211 5.75909C8.89474 5.28598 10.2186 5.42144 11.2412 6.12124L12.1734 5.43589C11.3306 4.75512 10.2537 4.37363 9.16384 4.375ZM12.9567 6.23358C13.1844 6.52729 13.3772 6.84638 13.5312 7.18444L9.16391 10.3956L7.33872 9.2544V7.88143L9.16391 9.02267L12.9567 6.23358Z" fill="white"/>
<defs>
<linearGradient id="paint0_linear_110_238" x1="107.094" y1="3.67788" x2="19.7262" y2="78.7926" gradientUnits="userSpaceOnUse">
<stop stop-color="#1AFFE3"/>
<stop offset="1" stop-color="#FFF629"/>
</linearGradient>
<linearGradient id="paint1_linear_110_238" x1="89.0208" y1="51.6154" x2="79.7044" y2="56.1848" gradientUnits="userSpaceOnUse">
<stop stop-color="#1AFFE3"/>
<stop offset="1" stop-color="#FFF629"/>
</linearGradient>
<linearGradient id="paint2_linear_110_238" x1="104.693" y1="51.6154" x2="93.0467" y2="61.6113" gradientUnits="userSpaceOnUse">
<stop stop-color="#1AFFE3"/>
<stop offset="1" stop-color="#FFF629"/>
</linearGradient>
</defs>
</svg>
