<svg width="112" height="64" viewBox="0 0 112 64" fill="none" xmlns="http://www.w3.org/2000/svg">
<rect width="111.75" height="63.75" fill="white"/>
<g clip-path="url(#clip0_112_241)">
<path d="M85.2359 23.6692V32.9595H81.9046V26.4425H78.697V32.9595H75.3657V23.6685H85.2359V23.6692Z" fill="black"/>
<path fill-rule="evenodd" clip-rule="evenodd" d="M68.5241 33.2917C71.5062 33.2917 73.7207 31.4708 73.7207 28.7105C73.7207 26.0387 72.0869 24.304 69.3563 24.304C68.0961 24.304 67.0562 24.7458 66.273 25.508C66.46 23.9326 67.7978 22.7825 69.2707 22.7825C69.6107 22.7825 72.1698 22.7771 72.1698 22.7771L73.617 20.0192C73.617 20.0192 70.404 20.0921 68.9104 20.0921C65.4977 20.1513 63.1926 23.2404 63.1926 26.9922C63.1926 31.3632 65.4408 33.2917 68.5241 33.2917ZM68.5422 26.7468C69.6494 26.7468 70.4171 27.4713 70.4171 28.7101C70.4171 29.8251 69.735 30.7438 68.5422 30.7463C67.4012 30.7463 66.6336 29.8951 66.6336 28.7291C66.6336 27.49 67.4012 26.7468 68.5422 26.7468Z" fill="black"/>
<path d="M60.4812 29.8492C60.4812 29.8492 59.6944 30.3007 58.5195 30.3862C57.1686 30.4261 55.965 29.5765 55.965 28.067C55.965 26.5945 57.0271 25.7506 58.4854 25.7506C59.3796 25.7506 60.5626 26.3677 60.5626 26.3677C60.5626 26.3677 61.4281 24.786 61.8765 23.995C61.0554 23.3752 59.9619 23.0355 58.6899 23.0355C55.4798 23.0355 52.9934 25.1198 52.9934 28.0483C52.9934 31.0142 55.3303 33.05 58.6899 32.9886C59.6289 32.9538 60.9244 32.6254 61.714 32.1203L60.4812 29.8492Z" fill="black"/>
<path d="M18 21.2714L22.6211 29.4968V34.514L18.0054 42.7233L18 21.2714Z" fill="#5B57A2"/>
<path d="M35.7429 26.5036L40.073 23.8607L48.9348 23.8525L35.7429 31.9002V26.5036Z" fill="#D90751"/>
<path d="M35.7185 21.2229L35.743 32.113L31.1111 29.2789V13L35.7185 21.2229Z" fill="#FAB718"/>
<path d="M48.9348 23.8525L40.0727 23.8607L35.7185 21.2229L31.1111 13L48.9348 23.8525Z" fill="#ED6F26"/>
<path d="M35.743 42.7689V37.4853L31.1111 34.705L31.1136 51L35.743 42.7689Z" fill="#63B22F"/>
<path d="M40.0623 40.1501L22.6207 29.4968L18 21.2714L48.9161 40.1393L40.0623 40.1501Z" fill="#1487C9"/>
<path d="M31.114 51L35.7427 42.7689L40.062 40.15L48.9158 40.1393L31.114 51Z" fill="#017F36"/>
<path d="M18.0054 42.7233L31.1489 34.7053L26.7301 32.0054L22.621 34.514L18.0054 42.7233Z" fill="#984995"/>
<path d="M55.9661 39.2121C55.8643 39.3413 55.7305 39.4388 55.5699 39.5047C55.4051 39.5715 55.2288 39.6055 55.0509 39.6047C54.874 39.6071 54.6981 39.5777 54.5316 39.518C54.3821 39.4639 54.2455 39.3796 54.1303 39.2703C54.0166 39.1609 53.9273 39.0288 53.8683 38.8827C53.8044 38.7227 53.7725 38.5518 53.7745 38.3796C53.7745 38.2086 53.8041 38.0502 53.8654 37.9001C53.9243 37.7497 54.0098 37.6208 54.117 37.5125C54.2241 37.402 54.3526 37.3178 54.497 37.2519C54.6442 37.1886 54.8048 37.1544 54.9813 37.1544C55.1714 37.1544 55.3479 37.1781 55.5085 37.2253C55.6691 37.2728 55.8055 37.352 55.9178 37.4628L55.7225 37.7921C55.6281 37.7069 55.5169 37.6422 55.3959 37.6021C55.281 37.5653 55.1609 37.5467 55.0401 37.547C54.9333 37.547 54.8315 37.5679 54.7326 37.6075C54.6352 37.6466 54.5461 37.7039 54.4703 37.7763C54.3928 37.8508 54.3317 37.9405 54.2909 38.0398C54.2454 38.1424 54.2241 38.2557 54.2241 38.3821C54.2241 38.5113 54.248 38.6272 54.2935 38.7273C54.3393 38.8302 54.4006 38.9173 54.4782 38.9907C54.5558 39.0648 54.6467 39.1199 54.7511 39.157C54.8557 39.1966 54.9654 39.2149 55.083 39.2149C55.2274 39.2149 55.3587 39.1858 55.471 39.1304C55.5822 39.0769 55.6822 39.0027 55.7654 38.9119L55.9661 39.2121ZM56.5172 39.5493V37.2044H56.9401V38.9515L58.3154 37.2044H58.7383V39.5496H58.3154V37.8026L56.9401 39.5496H56.5172V39.5493ZM61.5399 39.2121C61.4358 39.3424 61.2993 39.4432 61.144 39.5047C60.9791 39.5714 60.8027 39.6054 60.6247 39.6047C60.4479 39.6071 60.2721 39.5777 60.1057 39.518C59.9561 39.4639 59.8194 39.3796 59.7041 39.2703C59.5904 39.1609 59.5011 39.0288 59.4421 38.8827C59.3782 38.7227 59.3463 38.5518 59.3483 38.3796C59.3483 38.2086 59.3778 38.0502 59.4392 37.9001C59.4983 37.7497 59.5839 37.6208 59.6907 37.5125C59.7979 37.402 59.9264 37.3178 60.0707 37.2519C60.2232 37.185 60.3884 37.1518 60.555 37.1544C60.7452 37.1544 60.9217 37.1781 61.0823 37.2253C61.2428 37.2728 61.3793 37.352 61.4918 37.4628L61.2963 37.7921C61.202 37.7069 61.0909 37.6421 60.97 37.6021C60.855 37.5653 60.735 37.5467 60.6142 37.547C60.4016 37.5477 60.1975 37.6298 60.044 37.7763C59.9672 37.8513 59.9062 37.9409 59.8647 38.0398C59.8192 38.1424 59.7979 38.2557 59.7979 38.3821C59.7979 38.5113 59.8221 38.6272 59.8675 38.7273C59.913 38.8302 59.9744 38.9173 60.052 38.9907C60.1296 39.0648 60.2208 39.1199 60.3251 39.157C60.4294 39.1937 60.5391 39.2149 60.6568 39.2149C60.8015 39.2149 60.9299 39.1858 61.0447 39.1304C61.156 39.0769 61.2559 39.0027 61.3392 38.9119L61.5399 39.2121ZM61.7567 37.2044H63.9267V37.6208H63.0545V39.5493H62.6315V37.6208H61.7593V37.2044H61.7567Z" fill="black"/>
<path fill-rule="evenodd" clip-rule="evenodd" d="M65.9016 39.5259C66.0622 39.4759 66.1986 39.3993 66.3163 39.2941L66.1878 38.9673C66.1102 39.036 66.0059 39.094 65.8803 39.1415C65.7544 39.189 65.6126 39.2124 65.4574 39.2124C65.2246 39.2124 65.0319 39.1519 64.8793 39.0281C64.727 38.904 64.644 38.7305 64.6252 38.5088H66.4556C66.4743 38.4271 66.4823 38.3349 66.4823 38.227C66.4823 38.0661 66.4527 37.9214 66.3939 37.7896C66.3391 37.6617 66.2591 37.5461 66.1586 37.4495C66.0566 37.3539 65.9365 37.2796 65.8053 37.231C65.6679 37.178 65.5217 37.1511 65.3744 37.1519C65.1763 37.1519 65.0023 37.1861 64.85 37.2494C64.706 37.3097 64.5758 37.3985 64.4672 37.5103C64.3617 37.6216 64.2807 37.7535 64.2293 37.8976C64.1728 38.0511 64.1447 38.2136 64.1463 38.3771C64.1463 38.5617 64.1784 38.7301 64.2373 38.8806C64.2945 39.0263 64.3821 39.1583 64.4942 39.2678C64.6039 39.3755 64.7375 39.4575 64.8955 39.5155C65.0647 39.5752 65.2432 39.6046 65.4227 39.6022C65.5853 39.6012 65.7468 39.5753 65.9016 39.5259ZM64.8313 37.7209C64.9623 37.6025 65.1362 37.5445 65.3556 37.5445C65.5617 37.5445 65.7277 37.6 65.8482 37.7108C65.9687 37.8213 66.0326 37.9743 66.0434 38.169H64.5985C64.619 37.9966 64.7017 37.8371 64.8313 37.7209Z" fill="black"/>
<path d="M67.0576 37.2044H67.443L68.3582 38.3666L69.2251 37.2044H69.5996V39.5496H69.177V37.8396L68.3528 38.9277H68.3366L67.4805 37.8393V39.5493H67.0576V37.2044Z" fill="black"/>
<path fill-rule="evenodd" clip-rule="evenodd" d="M70.75 37.2123C70.6217 37.2457 70.499 37.298 70.3862 37.3675L70.4985 37.7C70.5948 37.6525 70.6912 37.6129 70.7875 37.5787C70.8839 37.5442 71.0069 37.5283 71.1542 37.5283C71.2718 37.5283 71.3656 37.547 71.4378 37.5838C71.51 37.618 71.5634 37.6708 71.6009 37.7342C71.6385 37.7975 71.6626 37.8764 71.676 37.9685C71.6893 38.0607 71.6948 38.1607 71.6948 38.269C71.6082 38.209 71.5096 38.1684 71.4057 38.1503C71.3052 38.1304 71.2032 38.1198 71.1007 38.1186C70.9748 38.1186 70.8572 38.1373 70.7446 38.1686C70.6323 38.2003 70.536 38.2478 70.4584 38.3111C70.3792 38.3744 70.3152 38.4544 70.2711 38.5455C70.224 38.6452 70.2002 38.7542 70.2015 38.8644C70.2015 39.0936 70.2686 39.2729 70.4021 39.3995C70.536 39.5259 70.7125 39.5889 70.9319 39.5889C71.13 39.5889 71.288 39.5547 71.4082 39.4863C71.5288 39.4176 71.6251 39.3387 71.6948 39.2491V39.5522H72.0907V38.1135C72.0907 37.8076 72.0239 37.5708 71.8875 37.4045C71.7536 37.2386 71.5154 37.1544 71.1783 37.1544C71.0282 37.1544 70.8864 37.1753 70.75 37.2123ZM71.4569 39.1123C71.3605 39.1807 71.2346 39.2121 71.0794 39.2121C70.943 39.2121 70.8359 39.1779 70.7611 39.112C70.6861 39.0436 70.6486 38.954 70.6486 38.8431C70.6486 38.7776 70.6619 38.7222 70.6915 38.6721C70.7211 38.6221 70.7611 38.5825 70.8066 38.5509C70.8564 38.5177 70.9116 38.4936 70.9697 38.4796C71.0314 38.4638 71.0928 38.4559 71.157 38.4559C71.3659 38.4559 71.545 38.5059 71.6922 38.6113V38.909C71.6228 38.9864 71.5437 39.055 71.4569 39.1123ZM75.8239 36.3795C75.9094 36.3402 75.9896 36.2743 76.0646 36.1768L75.8344 35.8475C75.7755 35.9266 75.7088 35.9817 75.6337 36.0109C75.5542 36.0418 75.4717 36.0647 75.3876 36.0793L75.3075 36.0935C75.2378 36.1056 75.1631 36.1189 75.0826 36.1322C74.9536 36.1559 74.8279 36.1948 74.708 36.2481C74.5179 36.3298 74.3656 36.4403 74.2505 36.5799C74.1353 36.7196 74.0444 36.8776 73.9827 37.0518C73.9202 37.2282 73.8781 37.4111 73.8571 37.5971C73.8355 37.7871 73.825 37.9685 73.825 38.1424C73.825 38.3666 73.8542 38.5692 73.9131 38.751C73.9722 38.9331 74.0549 39.0857 74.1646 39.2095C74.2743 39.3362 74.4056 39.4312 74.5608 39.4996C74.716 39.568 74.8899 39.6022 75.0852 39.6022C75.2645 39.6022 75.4305 39.568 75.5803 39.5047C75.7247 39.4438 75.8556 39.3552 75.9657 39.244C76.0725 39.1357 76.1584 39.0065 76.2172 38.8618C76.2786 38.7168 76.3082 38.5613 76.3082 38.3979C76.3082 38.2215 76.2815 38.061 76.2306 37.9185C76.1837 37.7826 76.109 37.658 76.0112 37.5524C75.9131 37.4486 75.7934 37.3675 75.6604 37.3149C75.514 37.2575 75.3577 37.2288 75.2003 37.2307C75.0985 37.2307 74.9996 37.244 74.9033 37.2703C74.8096 37.2966 74.7196 37.3347 74.6355 37.3836C74.554 37.4301 74.4793 37.4877 74.4136 37.5546C74.3494 37.6208 74.2959 37.6946 74.2584 37.7788H74.2476C74.2559 37.6708 74.2692 37.5603 74.2931 37.447C74.3172 37.3336 74.3519 37.2253 74.3977 37.1227C74.4432 37.0201 74.502 36.9276 74.5742 36.8434C74.6516 36.7584 74.7465 36.691 74.8524 36.6458C74.9689 36.5905 75.0922 36.5507 75.2191 36.5274L75.303 36.5122C75.3866 36.497 75.4665 36.4824 75.5428 36.4666C75.6445 36.4457 75.738 36.4187 75.8239 36.3795ZM74.336 38.6326C74.2946 38.4995 74.2748 38.3608 74.2772 38.2215C74.2951 38.1416 74.3278 38.0657 74.3735 37.9976C74.419 37.9264 74.4778 37.8634 74.5475 37.8076C74.7046 37.685 74.8989 37.6192 75.0985 37.6208C75.3475 37.6208 75.5348 37.6971 75.6658 37.8475C75.7972 38.0002 75.8614 38.1899 75.8614 38.4191C75.8614 38.5325 75.8398 38.6354 75.8026 38.7301C75.7664 38.8235 75.7118 38.9087 75.6419 38.9807C75.572 39.0526 75.4884 39.1099 75.3959 39.149C75.2995 39.1912 75.1949 39.2124 75.0772 39.2124C74.9596 39.2124 74.8524 39.1886 74.7535 39.1411C74.6552 39.0946 74.5684 39.0271 74.4991 38.9435C74.4266 38.8504 74.3714 38.745 74.336 38.6326ZM79.5514 37.2044H79.1284V39.5496H79.5514V37.2044ZM76.9181 37.2044H77.341V37.908H77.7318C77.9163 37.908 78.066 37.9318 78.1866 37.9764C78.3071 38.0214 78.4034 38.0819 78.4756 38.1557C78.5478 38.2294 78.5987 38.3165 78.6282 38.4137C78.6575 38.5113 78.6737 38.6113 78.6737 38.7168C78.6737 38.8222 78.6575 38.9226 78.6228 39.0227C78.5907 39.1228 78.5344 39.2095 78.4594 39.2887C78.3847 39.3679 78.2829 39.4312 78.1544 39.4787C78.026 39.5259 77.8708 39.5522 77.6835 39.5522H76.9155V37.2044H76.9181ZM77.341 38.3004V39.1595H77.6488C77.8603 39.1595 78.0101 39.1228 78.0956 39.0487C78.1815 38.9749 78.2241 38.8697 78.2241 38.7301C78.2241 38.5876 78.1786 38.4799 78.0931 38.4058C78.0047 38.332 77.8574 38.295 77.6542 38.295H77.341V38.3004Z" fill="black"/>
<path d="M82.3479 39.2121C82.2462 39.3413 82.1123 39.4388 81.9517 39.5047C81.7869 39.5714 81.6106 39.6054 81.4328 39.6047C81.2558 39.6071 81.0799 39.5777 80.9135 39.518C80.7639 39.464 80.6273 39.3797 80.5122 39.2703C80.3984 39.1608 80.3091 39.0288 80.2498 38.8827C80.1862 38.7226 80.1544 38.5517 80.1563 38.3796C80.1563 38.2086 80.1856 38.0502 80.2473 37.9001C80.3061 37.7497 80.3916 37.6208 80.4988 37.5125C80.606 37.402 80.7341 37.3178 80.8788 37.2519C81.0313 37.185 81.1965 37.1517 81.3631 37.1544C81.5529 37.1544 81.7298 37.1781 81.8903 37.2253C82.0509 37.2728 82.1873 37.352 82.2996 37.4628L82.1043 37.7921C82.0099 37.7069 81.8987 37.6422 81.7778 37.6021C81.6628 37.5653 81.5427 37.5467 81.4219 37.547C81.3151 37.547 81.2133 37.5679 81.1141 37.6075C81.0168 37.6466 80.9278 37.7039 80.8521 37.7763C80.7752 37.8513 80.7142 37.9409 80.6728 38.0398C80.6273 38.1424 80.606 38.2557 80.606 38.3821C80.606 38.5113 80.6298 38.6272 80.6753 38.7273C80.7208 38.8302 80.7825 38.9173 80.86 38.9907C80.9376 39.0648 81.0286 39.1199 81.1329 39.157C81.2375 39.1937 81.3472 39.2149 81.4649 39.2149C81.6092 39.2149 81.7377 39.1858 81.8528 39.1304C81.964 39.0769 82.064 39.0027 82.1473 38.9119L82.3479 39.2121ZM82.5645 37.2044H84.7348V37.6208H83.8622V39.5493H83.4396V37.6208H82.5673V37.2044H82.5645Z" fill="black"/>
<path fill-rule="evenodd" clip-rule="evenodd" d="M85.6178 37.2047H85.1948V40.5931H85.6178V39.4417C85.7033 39.4971 85.8051 39.5367 85.9227 39.5629C86.0404 39.5892 86.1634 39.6022 86.2894 39.6022C86.4766 39.6022 86.6452 39.568 86.7978 39.505C86.9442 39.4426 87.0769 39.3523 87.1883 39.239C87.298 39.1253 87.381 38.9936 87.4398 38.8381C87.4987 38.6829 87.5282 38.5167 87.5282 38.3403C87.5282 38.1661 87.5015 38.0056 87.4507 37.8605C87.4028 37.7228 87.3282 37.5958 87.2312 37.4866C87.1361 37.3801 87.018 37.2963 86.8859 37.2415C86.7415 37.1797 86.5855 37.1491 86.4283 37.1518C86.2626 37.1518 86.1075 37.1835 85.9602 37.2468C85.813 37.3102 85.6979 37.3862 85.6178 37.4812V37.2047ZM85.9122 37.6395C86.0327 37.5762 86.1637 37.5445 86.3056 37.5445C86.4286 37.5445 86.5383 37.5629 86.6376 37.6025C86.7339 37.642 86.814 37.6975 86.8811 37.7712C86.9479 37.845 86.9988 37.9296 87.0309 38.0293C87.0656 38.1294 87.0818 38.2377 87.0818 38.3561C87.0818 38.4828 87.0602 38.5958 87.023 38.7013C86.9879 38.8013 86.9322 38.8928 86.8595 38.9701C86.7865 39.0465 86.6981 39.1066 86.6 39.1465C86.4908 39.1921 86.3731 39.2145 86.2547 39.2124C86.1399 39.2124 86.0327 39.1994 85.931 39.1731C85.8196 39.1429 85.7139 39.0948 85.6181 39.0306V37.8685C85.6928 37.7792 85.792 37.7028 85.9122 37.6395ZM90.7714 37.2044H90.3485V39.5496H90.7714V37.2044ZM88.1356 37.2044H88.5585V37.908H88.949C89.1338 37.908 89.2836 37.9318 89.4041 37.9764C89.5246 38.0214 89.6209 38.0819 89.6931 38.1557C89.7653 38.2295 89.8162 38.3165 89.8455 38.4138C89.875 38.5113 89.8909 38.6114 89.8909 38.7168C89.8909 38.8223 89.875 38.9226 89.8404 39.0227C89.8082 39.1228 89.752 39.2095 89.6769 39.2887C89.6022 39.3679 89.5004 39.4312 89.372 39.4787C89.2435 39.5259 89.0883 39.5522 88.901 39.5522H88.1331V37.2044H88.1356ZM88.5614 38.3004V39.1595H88.8692C89.0804 39.1595 89.2305 39.1228 89.316 39.0487C89.4015 38.9749 89.4445 38.8698 89.4445 38.7301C89.4445 38.5876 89.399 38.4799 89.3135 38.4058C89.225 38.3321 89.0778 38.295 88.8746 38.295H88.5614V38.3004Z" fill="black"/>
<path d="M92.7999 38.3349L93.7042 39.5496H93.1853L92.4866 38.6009L91.7775 39.5496H91.2853L92.1842 38.3558L91.3387 37.2044H91.858L92.5028 38.0898L93.1582 37.2044H93.6508L92.7999 38.3349ZM55.653 42.4481H54.3553V44.4032H53.9324V42.0583H56.0756V44.4032H55.653V42.4481ZM58.4758 42.4744H57.6411L57.6141 42.8696C57.5848 43.2043 57.5448 43.4731 57.4885 43.6783C57.4322 43.8842 57.3625 44.0422 57.2824 44.1527C57.2023 44.2635 57.1085 44.3399 57.0013 44.3769C56.8908 44.4168 56.7739 44.4365 56.6563 44.4349L56.6242 44.0289C56.6696 44.0314 56.7231 44.021 56.7819 43.9947C56.841 43.9684 56.8999 43.9105 56.9558 43.8237C57.0121 43.7338 57.063 43.6074 57.1085 43.444C57.1539 43.2781 57.1835 43.0621 57.1994 42.7904L57.2423 42.0605H58.8988V44.4057H58.4758V42.4741V42.4744Z" fill="black"/>
<path fill-rule="evenodd" clip-rule="evenodd" d="M60.0388 42.0637C59.9021 42.1004 59.779 42.153 59.6747 42.2189L59.7873 42.551C59.8837 42.5035 59.98 42.464 60.076 42.4298C60.1724 42.3956 60.2958 42.3797 60.4427 42.3797C60.5607 42.3797 60.6541 42.3981 60.7263 42.4348C60.7988 42.4693 60.8523 42.5219 60.8898 42.5852C60.927 42.6486 60.9511 42.7277 60.9645 42.8196C60.9779 42.912 60.9833 43.0121 60.9833 43.1201C60.8967 43.0601 60.7981 43.0197 60.6942 43.0017C60.5938 42.9818 60.4917 42.9712 60.3893 42.97C60.2636 42.97 60.1457 42.9884 60.0334 43.02C59.9209 43.0517 59.8245 43.0992 59.7469 43.1625C59.6677 43.2257 59.6037 43.3058 59.5596 43.3969C59.5126 43.4966 59.4889 43.6056 59.4903 43.7157C59.4903 43.9447 59.5571 44.1242 59.6909 44.2506C59.8245 44.3769 60.0013 44.4403 60.2207 44.4403C60.4188 44.4403 60.5766 44.4061 60.6971 44.3374C60.8173 44.269 60.9136 44.1898 60.9833 44.1002V44.4032H61.3795V42.9646C61.3795 42.659 61.3124 42.4218 61.176 42.2559C61.0421 42.0897 60.8039 42.0057 60.4668 42.0057C60.3222 42.0059 60.1783 42.0256 60.0388 42.0637ZM60.748 43.9631C60.6519 44.0318 60.526 44.0634 60.3708 44.0634C60.2315 44.0634 60.1272 44.0292 60.0525 43.9631C59.9775 43.8947 59.9399 43.805 59.9399 43.6945C59.9399 43.6287 59.9533 43.5732 59.9829 43.5232C60.0121 43.4732 60.0525 43.4336 60.098 43.4019C60.1434 43.3703 60.1994 43.3465 60.2611 43.3307C60.3223 43.3149 60.3852 43.3071 60.4484 43.3072C60.657 43.3072 60.8364 43.3573 60.9836 43.4624V43.7601C60.9141 43.8375 60.8349 43.9057 60.748 43.9631Z" fill="black"/>
<path d="M61.7937 42.0583H63.964V42.4744H63.0914V44.4032H62.6688V42.4747H61.7966V42.0583H61.7937Z" fill="black"/>
<path fill-rule="evenodd" clip-rule="evenodd" d="M65.939 44.3794C66.0996 44.3294 66.236 44.2528 66.3537 44.1476L66.2252 43.8208C66.1476 43.8896 66.0433 43.9475 65.9174 43.995C65.7918 44.0425 65.65 44.0659 65.4948 44.0659C65.262 44.0659 65.0693 44.0055 64.9167 43.8816C64.7641 43.7578 64.6814 43.584 64.6626 43.3623H66.493C66.5114 43.2809 66.5197 43.1885 66.5197 43.0805C66.5197 42.9199 66.4901 42.7749 66.4313 42.6432C66.3765 42.5153 66.2964 42.3997 66.1957 42.3034C66.0939 42.2076 65.9739 42.1332 65.8427 42.0846C65.7053 42.0315 65.5592 42.0047 65.4118 42.0054C65.2137 42.0054 65.0398 42.0396 64.8874 42.1029C64.7434 42.1631 64.6131 42.2519 64.5046 42.3639C64.3991 42.4752 64.3181 42.607 64.2664 42.7511C64.21 42.9047 64.1819 43.0671 64.1834 43.2306C64.1834 43.4152 64.2155 43.5837 64.2744 43.7341C64.3335 43.8842 64.4216 44.0134 64.5313 44.1214C64.641 44.2293 64.7749 44.311 64.9329 44.369C65.102 44.4289 65.2804 44.4583 65.4598 44.4561C65.6179 44.4561 65.7785 44.4295 65.939 44.3794ZM64.8661 42.5719C64.9971 42.4535 65.1711 42.3955 65.3905 42.3955C65.5994 42.3955 65.7626 42.4535 65.8831 42.5615C66.0033 42.6723 66.0675 42.8249 66.0783 43.02H64.6334C64.6538 42.8474 64.7365 42.6882 64.8661 42.5719ZM66.7257 42.0583H67.2609L68.0769 43.1888L67.2046 44.4032H66.6857L67.6005 43.1885L66.7257 42.0583ZM68.1812 42.0583H68.6041V44.4032H68.1812V42.0583ZM70.1159 44.4032L69.1848 43.1885L70.0545 42.058H69.5298L68.7084 43.1885L69.5915 44.4032H70.1159ZM72.048 44.3794C72.2086 44.3294 72.345 44.2528 72.4626 44.1476L72.3342 43.8208C72.2566 43.8896 72.1523 43.9475 72.0267 43.995C71.9007 44.0425 71.7589 44.0659 71.6037 44.0659C71.371 44.0659 71.1783 44.0055 71.0256 43.8816C70.8733 43.7578 70.7903 43.584 70.7716 43.3623H72.6019C72.6207 43.2809 72.6286 43.1885 72.6286 43.0805C72.6286 42.9199 72.5994 42.7749 72.5402 42.6432C72.4854 42.5153 72.4054 42.3998 72.3049 42.3034C72.2031 42.2076 72.0829 42.1332 71.9516 42.0846C71.8143 42.0315 71.6681 42.0046 71.5207 42.0054C71.323 42.0054 71.149 42.0396 70.9964 42.1029C70.8524 42.1632 70.7223 42.252 70.6138 42.3639C70.5082 42.475 70.4271 42.6069 70.3757 42.7511C70.3191 42.9046 70.291 43.0671 70.2927 43.2306C70.2927 43.4152 70.3248 43.5837 70.3836 43.7341C70.4424 43.8842 70.5308 44.0134 70.6405 44.1214C70.7503 44.2293 70.8838 44.311 71.0418 44.369C71.211 44.4289 71.3895 44.4583 71.5691 44.4561C71.7317 44.4549 71.8932 44.429 72.048 44.3794ZM70.9751 42.5719C71.1064 42.4535 71.2803 42.3955 71.4998 42.3955C71.7058 42.3955 71.8715 42.4535 71.992 42.5615C72.1125 42.6723 72.1768 42.8249 72.1873 43.02H70.7423C70.7627 42.8474 70.8454 42.6882 70.9751 42.5719ZM74.3442 41.2704C74.0952 41.2704 73.9588 41.1333 73.9375 40.8594H73.5387C73.5387 40.9645 73.5575 41.0595 73.5921 41.1491C73.6271 41.2387 73.678 41.3151 73.7448 41.3784C73.8116 41.4417 73.8974 41.4918 73.9963 41.531C74.0952 41.5706 74.2103 41.589 74.3413 41.589C74.4618 41.589 74.569 41.5706 74.6654 41.531C74.7617 41.4943 74.8418 41.4417 74.9115 41.3784C74.9783 41.3151 75.032 41.2387 75.0692 41.1491C75.1067 41.0595 75.1255 40.9645 75.1255 40.8594H74.7296C74.7108 41.1333 74.5795 41.2704 74.3442 41.2704ZM73.2013 42.058V44.4032H73.6243L74.9996 42.6561V44.4032H75.4225V42.058H74.9996L73.6243 43.805V42.058H73.2013Z" fill="black"/>
</g>
<defs>
<clipPath id="clip0_112_241">
<rect width="76" height="38" fill="white" transform="translate(18 13)"/>
</clipPath>
</defs>
</svg>
