<svg width="36" height="36" viewBox="0 0 36 36" fill="none" xmlns="http://www.w3.org/2000/svg">
<path fill-rule="evenodd" clip-rule="evenodd" d="M16.9677 10C13.1106 10 10 13.0949 10 16.8929C10 20.6908 13.1106 23.7857 16.9677 23.7857C20.8248 23.7857 23.9355 20.6908 23.9355 16.8929C23.9355 13.0949 20.8248 10 16.9677 10ZM8 16.8929C8 11.9726 12.0239 8 16.9677 8C21.9116 8 25.9355 11.9726 25.9355 16.8929C25.9355 18.7287 25.3753 20.4325 24.4162 21.8474L28.6253 25.2196C29.0563 25.5649 29.1257 26.1942 28.7804 26.6253C28.4351 27.0563 27.8058 27.1257 27.3747 26.7804L23.115 23.3676C21.5084 24.8677 19.3444 25.7857 16.9677 25.7857C12.0239 25.7857 8 21.8131 8 16.8929Z" fill="url(#paint0_linear_58_44)"/>
<defs>
<linearGradient id="paint0_linear_58_44" x1="27.2634" y1="8.2007" x2="10.6976" y2="28.1624" gradientUnits="userSpaceOnUse">
<stop stop-color="#2FE9DE"/>
<stop offset="1" stop-color="#972FE9"/>
</linearGradient>
</defs>
</svg>
