<svg width="36" height="36" viewBox="0 0 36 36" fill="none" xmlns="http://www.w3.org/2000/svg">
<path fill-rule="evenodd" clip-rule="evenodd" d="M21.5 13C21.5 12.0717 21.1313 11.1815 20.4749 10.5251C19.8185 9.86875 18.9283 9.5 18 9.5C17.0717 9.5 16.1815 9.86875 15.5251 10.5251C14.8687 11.1815 14.5 12.0717 14.5 13L13 13C13 12.6616 13.0343 12.3267 13.101 12C13.2956 11.0466 13.7661 10.1628 14.4645 9.46447C15.4021 8.52678 16.6739 8 18 8C19.3261 8 20.5979 8.52678 21.5355 9.46447C22.2339 10.1628 22.7044 11.0466 22.899 12C22.9657 12.3267 23 12.6616 23 13H21.5Z" fill="url(#paint0_linear_58_32)"/>
<path fill-rule="evenodd" clip-rule="evenodd" d="M13.0561 15.7472C12.9942 15.3377 13.3358 15 13.75 15C14.1642 15 14.4919 15.3396 14.58 15.7443C14.7216 16.3948 15.0471 16.9968 15.5251 17.4749C16.1815 18.1313 17.0717 18.5 18 18.5C18.9282 18.5 19.8185 18.1313 20.4749 17.4749C20.9529 16.9968 21.2784 16.3948 21.4199 15.7443C21.508 15.3396 21.8358 15 22.25 15C22.6642 15 23.0058 15.3377 22.9439 15.7472C22.7852 16.7968 22.2953 17.7758 21.5355 18.5355C20.5978 19.4732 19.3261 20 18 20C16.6739 20 15.4021 19.4732 14.4645 18.5355C13.7047 17.7758 13.2147 16.7968 13.0561 15.7472Z" fill="url(#paint1_linear_58_32)"/>
<path fill-rule="evenodd" clip-rule="evenodd" d="M24 13H12C11.4477 13 11 13.4477 11 14V26C11 26.5523 11.4477 27 12 27H24C24.5523 27 25 26.5523 25 26V14C25 13.4477 24.5523 13 24 13ZM12 12C10.8954 12 10 12.8954 10 14V26C10 27.1046 10.8954 28 12 28H24C25.1046 28 26 27.1046 26 26V14C26 12.8954 25.1046 12 24 12H12Z" fill="url(#paint2_linear_58_32)"/>
<defs>
<linearGradient id="paint0_linear_58_32" x1="22.173" y1="8.05282" x2="18.8117" y2="15.3821" gradientUnits="userSpaceOnUse">
<stop stop-color="#2FE9DE"/>
<stop offset="1" stop-color="#972FE9"/>
</linearGradient>
<linearGradient id="paint1_linear_58_32" x1="13.8677" y1="19.9472" x2="17.2506" y2="12.6431" gradientUnits="userSpaceOnUse">
<stop stop-color="#2FE9DE"/>
<stop offset="1" stop-color="#972FE9"/>
</linearGradient>
<linearGradient id="paint2_linear_58_32" x1="24.6768" y1="12.169" x2="10.5363" y2="27.5855" gradientUnits="userSpaceOnUse">
<stop stop-color="#2FE9DE"/>
<stop offset="1" stop-color="#972FE9"/>
</linearGradient>
</defs>
</svg>
