<svg width="16" height="15" viewBox="0 0 16 15" fill="none" xmlns="http://www.w3.org/2000/svg">
<path d="M6.09789 1.8541C6.69659 0.0114813 9.30341 0.0114808 9.90211 1.8541L10.2451 2.90983C10.5129 3.73387 11.2808 4.2918 12.1473 4.2918H13.2573C15.1948 4.2918 16.0003 6.77103 14.4329 7.90983L13.5348 8.56231C12.8339 9.07159 12.5405 9.97433 12.8083 10.7984L13.1513 11.8541C13.75 13.6967 11.6411 15.229 10.0736 14.0902L9.17557 13.4377C8.4746 12.9284 7.5254 12.9284 6.82443 13.4377L5.92638 14.0902C4.35895 15.229 2.24999 13.6967 2.84869 11.8541L3.19172 10.7984C3.45947 9.97433 3.16615 9.07159 2.46517 8.56231L1.56712 7.90983C-0.000308037 6.77103 0.805244 4.2918 2.74269 4.2918H3.85275C4.7192 4.2918 5.48711 3.73387 5.75486 2.90983L6.09789 1.8541Z" fill="#FFBD59"/>
</svg>
